<?xml version="1.0" encoding="utf-8"?>
<!-- Generator: Adobe Illustrator 13.0.2, SVG Export Plug-In  -->
<!DOCTYPE svg PUBLIC "-//W3C//DTD SVG 1.1//EN" "http://www.w3.org/Graphics/SVG/1.1/DTD/svg11.dtd" [
	<!ENTITY ns_flows "http://ns.adobe.com/Flows/1.0/">
]>
<svg version="1.1"
	 xmlns="http://www.w3.org/2000/svg" xmlns:xlink="http://www.w3.org/1999/xlink" xmlns:a="http://ns.adobe.com/AdobeSVGViewerExtensions/3.0/"
	 x="0px" y="0px" width="182px" height="202px" viewBox="-1 -0.2 182 202" enable-background="new -1 -0.2 182 202"
	 xml:space="preserve">
<defs>
</defs>
<path d="M180,158.5V0h-77.9L90,20.7L77.9,0H0l0,158.5c0,0,0,43.1,90,43.1C180,201.6,180,158.5,180,158.5z"/>
<path fill="#F1B831" d="M22.5,110.8h46.7l0,10.4c0,0-5.2,0-5.2,3.5v20.8c0,0,0,10.4,26,10.4s26-10.4,26-10.4v-20.8
	c0-3.5-5.2-3.5-5.2-3.5v-10.4h46.7v10.4c0,0-5.2,0-5.2,3.5v24.2c0,0,0,27.7-62.3,27.7c-62.3,0-62.3-27.7-62.3-27.7v-24.2
	c0-3.5-5.2-3.5-5.2-3.5L22.5,110.8z"/>
<path fill="#F1B831" d="M22.5,22.5h45L90,60.6l22.5-38.1h45v12.1c0,0-5.2,0-5.2,3.5v36.3c0,3.5,5.2,3.5,5.2,3.5V90H116V77.9
	c0,0,5.2,0,5.2-3.5V46.7L95.2,90H84.8l-26-43.3v27.7c0.2,3.1,5.2,3.5,5.2,3.5V90H22.5V77.9c0,0,5.2,0,5.2-3.5V38.1
	c-0.1-3.5-5.2-3.5-5.2-3.5V22.5z"/>
</svg>
